<svg xmlns="http://www.w3.org/2000/svg" width="148" height="148" viewBox="0 0 148 148">
  <defs>
    <filter id="nucleum-icon-a" width="117.1%" height="117.1%" x="-8.6%" y="-8.6%" filterUnits="objectBoundingBox">
      <feOffset dy="2" in="SourceAlpha" result="shadowOffsetOuter1"/>
      <feGaussianBlur in="shadowOffsetOuter1" result="shadowBlurOuter1" stdDeviation="2"/>
      <feColorMatrix in="shadowBlurOuter1" result="shadowMatrixOuter1" values="0 0 0 0 0 0 0 0 0 0 0 0 0 0 0 0 0 0 0.5 0"/>
      <feMerge>
        <feMergeNode in="shadowMatrixOuter1"/>
        <feMergeNode in="SourceGraphic"/>
      </feMerge>
    </filter>
  </defs>
  <g fill="none" filter="url(#nucleum-icon-a)" transform="translate(4 2)">
    <circle cx="70" cy="70" r="70" fill="#0575A5"/>
    <path fill="#025E90" d="M138 84.2L104.2 50l-.6-.6a4 4 0 0 0-2.2-.5c-2 0-4.9.6-8.3 1.8L72.6 30.2V30h-.2l-.1-.1c-1.5 0-2.3 11.8-2.7 24.5V56l-1.8.1-.6.1-1.1.3-.7.2a12.4 12.4 0 0 0-1.7.7l-.3.1-1 .5.3-.1A72.2 72.2 0 0 0 38 49c-1.4 0-2.4.4-2.8 1-1 1.8 1.6 5.3 6.6 9.8a3.4 3.4 0 0 0-.7 2.7l.1.2a4 4 0 0 0 .2.7l.2.2.1.3.8.8 8.5 8.6C40.2 81 33.7 87.6 35.2 90.2l.2.2.2.3 48 48.3A70 70 0 0 0 138 84.2z"/>
    <path fill="#FF8E31" d="M84 70a14 14 0 1 1-28 0 14 14 0 0 1 28 0z"/>
    <path fill="#FFCD59" d="M67.2 60.8c1.3 1.4 1 4-.7 5.7-1.8 1.7-4.3 2-5.7.7-1.3-1.4-1-4 .7-5.7 1.8-1.7 4.3-2 5.7-.7z"/>
    <g fill="#FFF">
      <path d="M72.6 109.4c-.9-.3-1.9-10.3-2.3-25.4a533.4 533.4 0 0 1 0-28c.4-15.2 1.4-25.1 2.3-25.4 1 .3 2 10.6 2.4 26.3l.4.1c-.3-13.4-1.2-26.8-2.8-26.8-1.5 0-2.3 12.7-2.7 25.8a555 555 0 0 0 0 28c.4 13 1.2 25.8 2.7 25.8 1.6 0 2.5-13.4 2.8-26.9l-.4.2c-.4 15.6-1.4 26-2.4 26.3z"/>
      <path d="M84 70v.5C97 79 105.9 87 104.4 89.7c-.4.5-1.2.8-2.5.8-4.5 0-13.7-3.3-24.4-8.6A208.5 208.5 0 0 1 56 69.5C43 61 34.2 53 35.7 50.3c.4-.5 1.2-.8 2.5-.8 4.5 0 13.7 3.3 24.3 8.6.2 0 .3-.2.5-.3a73 73 0 0 0-24.8-8.7c-1.5 0-2.4.3-2.8 1-1.7 3 6.9 11 20.5 20A228 228 0 0 0 77 82a73 73 0 0 0 24.8 8.9c1.5 0 2.4-.4 2.8-1.1 1.7-3-6.9-11-20.5-20z"/>
      <path d="M104.6 50.1c-.4-.7-1.3-1-2.8-1A73 73 0 0 0 77 57.7l.5.3a71.7 71.7 0 0 1 24.3-8.6c1.3 0 2.1.3 2.5.8C105.8 53 97 61 84 69.5A195.5 195.5 0 0 1 62.6 82a71.8 71.8 0 0 1-24.4 8.6c-1.3 0-2.1-.3-2.5-.8C34.2 87 43 79 56 70.5V70c-13.6 8.9-22.2 17-20.5 19.9.4.7 1.3 1 2.8 1A73 73 0 0 0 63 82.2a192.9 192.9 0 0 0 21-12c13.7-9 22.3-17 20.6-20z"/>
    </g>
    <path fill="#283A4D" d="M104 57.5a3.5 3.5 0 1 1-7 0 3.5 3.5 0 0 1 7 0z"/>
    <path fill="#768EA6" d="M99.8 55.2c.3.4.3 1-.2 1.4a1 1 0 0 1-1.4.2 1 1 0 0 1 .2-1.4 1 1 0 0 1 1.4-.2z"/>
    <path fill="#283A4D" d="M48 61.5a3.5 3.5 0 1 1-7 0 3.5 3.5 0 0 1 7 0z"/>
    <path fill="#768EA6" d="M43.8 59.2c.3.4.3 1-.2 1.4a1 1 0 0 1-1.4.2 1 1 0 0 1 .2-1.4 1 1 0 0 1 1.4-.2z"/>
    <path fill="#283A4D" d="M74 95.5a3.5 3.5 0 1 1-7 0 3.5 3.5 0 0 1 7 0z"/>
    <path fill="#768EA6" d="M69.8 93.2c.3.4.3 1-.2 1.4a1 1 0 0 1-1.4.2 1 1 0 0 1 .2-1.4 1 1 0 0 1 1.4-.2z"/>
  </g>
</svg>
