<?xml version="1.0" standalone="no"?>
<!DOCTYPE svg PUBLIC "-//W3C//DTD SVG 20010904//EN"
 "http://www.w3.org/TR/2001/REC-SVG-20010904/DTD/svg10.dtd">
<svg version="1.0" xmlns="http://www.w3.org/2000/svg"
 width="700.000000pt" height="700.000000pt" viewBox="0 0 700.000000 700.000000"
 preserveAspectRatio="xMidYMid meet">
<metadata>
Created by potrace 1.11, written by Peter Selinger 2001-2013
</metadata>
<g transform="translate(0.000000,700.000000) scale(0.100000,-0.100000)"
fill="#000000" stroke="none">
<path d="M3240 6894 c-19 -2 -78 -9 -130 -15 -945 -108 -1803 -629 -2348
-1427 -558 -817 -717 -1853 -432 -2812 321 -1077 1202 -1938 2290 -2236 353
-97 718 -136 1061 -114 100 6 225 18 278 27 53 8 125 16 161 18 184 7 653 174
946 336 1340 742 2007 2251 1645 3724 -111 451 -338 906 -638 1280 -114 142
-338 367 -481 483 -307 249 -680 455 -1032 570 -378 124 -610 162 -1010 167
-151 2 -291 1 -310 -1z m404 -1437 c47 -71 84 -417 106 -1002 4 -132 7 -241 5
-243 -2 -2 24 -18 58 -36 40 -20 93 -61 148 -116 70 -69 94 -101 128 -170 38
-78 70 -191 71 -248 0 -20 14 -13 138 70 157 106 360 257 445 330 39 34 62 47
69 40 17 -17 -249 -227 -519 -409 l-112 -76 117 -80 c532 -362 873 -697 848
-832 -13 -67 -87 -92 -211 -69 -328 61 -658 176 -965 335 l-135 70 -36 -17
-37 -16 -6 -82 c-3 -44 -8 -160 -11 -256 -18 -568 -68 -940 -126 -940 -27 0
-59 149 -80 373 -10 113 -9 150 5 136 2 -2 11 -78 20 -169 18 -173 39 -297 55
-313 38 -38 91 465 107 1007 l7 229 -24 -7 c-13 -4 -51 -12 -84 -17 -33 -6
-71 -13 -84 -15 l-24 -5 6 -190 c4 -117 2 -189 -3 -189 -6 0 -10 3 -11 8 0 4
-4 87 -8 184 -4 97 -10 180 -13 183 -3 4 -39 11 -80 16 -40 6 -110 25 -155 43
l-81 32 -89 -48 c-213 -116 -543 -243 -788 -303 -136 -34 -301 -64 -323 -59
-61 11 -75 17 -92 34 -54 54 -3 164 149 322 155 162 402 361 686 552 55 37
100 71 100 76 0 4 -74 60 -165 124 -91 63 -181 128 -200 145 -55 46 -26 49 37
3 32 -23 124 -87 206 -142 131 -90 147 -99 147 -78 1 56 33 170 70 245 42 85
112 170 192 233 l46 37 -156 73 c-450 210 -767 317 -962 327 -135 6 -175 -19
-152 -94 19 -63 70 -131 184 -246 60 -60 108 -110 108 -113 0 -35 -204 164
-263 257 -36 57 -57 109 -57 141 0 11 13 33 29 49 27 26 36 29 95 29 36 0 120
-11 186 -25 299 -63 597 -168 865 -305 l151 -76 53 23 c67 30 163 53 218 53
l42 0 5 53 c2 28 10 176 16 327 21 523 63 850 109 850 6 0 17 -10 25 -23z
m1477 -906 c19 -19 29 -40 29 -59 0 -53 -86 -199 -106 -179 -3 3 8 26 26 51
81 119 79 172 -11 196 -47 13 -132 -1 -349 -55 -249 -63 -475 -148 -717 -271
-79 -40 -146 -68 -153 -64 -21 13 218 132 435 218 250 99 602 190 743 191 68
1 76 -1 103 -28z m-213 -283 c4 -35 -39 -68 -63 -48 -20 16 -19 39 2 62 24 27
57 19 61 -14z m-2649 -176 c15 -28 -13 -64 -47 -60 -33 4 -41 32 -16 59 22 24
50 24 63 1z m1231 -1607 c20 -24 -13 -67 -48 -63 -33 4 -41 32 -16 59 21 23
47 25 64 4z"/>
<path d="M3601 5403 c-35 -154 -81 -750 -81 -1054 l0 -99 38 0 c20 0 64 -7 97
-15 33 -8 63 -14 68 -15 25 -1 -18 812 -58 1080 -23 155 -44 189 -64 103z"/>
<path d="M2695 3473 c-490 -333 -825 -650 -825 -780 0 -32 31 -60 76 -67 89
-15 498 88 756 190 129 51 405 182 435 206 9 7 0 20 -35 47 -75 59 -145 143
-184 217 -43 83 -55 120 -71 212 l-12 70 -140 -95z"/>
<path d="M4160 3548 c-1 -56 -33 -170 -70 -245 -42 -85 -112 -170 -192 -233
l-46 -37 56 -26 c31 -14 120 -54 197 -90 390 -180 722 -287 893 -287 97 0 132
17 132 66 0 44 -20 83 -81 159 -122 154 -394 379 -731 609 -141 96 -158 105
-158 84z"/>
</g>
</svg>
